<svg width="218" height="45" viewBox="0 0 218 45" fill="none" xmlns="http://www.w3.org/2000/svg">
<path d="M155.105 13.9971H146.841V35.3594H143.805V13.9971H135.541V11.2844H155.105V13.9971ZM163.567 11.2844H166.131L175.913 35.3594H172.675L169.841 28.3065H159.789L156.99 35.3594H153.752L163.567 11.2844ZM169.167 25.9329L164.849 14.8109L160.396 25.9329H169.167ZM179.109 35.3594V11.2844H182.145V32.6467H195.502V35.3594H179.109ZM198.807 35.3594V11.3183H201.843V24.6104L214.189 11.2844H217.46L207.847 21.8978L218 35.3594H214.593L205.925 23.7288L201.843 28.0013V35.3594H198.807Z" fill="white"/>
<path d="M0 22.5C0 10.0735 9.89999 0 22.1124 0H138.751C138.807 0 138.861 0.00667309 138.915 0.0198938C139.649 0.200391 139.611 1.40223 138.888 1.62012C118.994 7.61049 118.931 37.2975 138.879 43.3261C139.629 43.5523 139.684 44.762 138.93 44.973C138.866 44.9911 138.801 45 138.734 45H22.1124C9.89999 45 0 34.9265 0 22.5Z" fill="#F95C3B"/>
<path d="M41.6939 28.7309C41.6939 29.9743 41.3791 31.0593 40.7494 31.9862C40.1198 32.913 39.2653 33.6364 38.1859 34.1563C37.129 34.6762 35.9596 34.9362 34.6779 34.9362H23.3105V10.8612H35.2176C36.3419 10.8612 37.3089 11.1664 38.1184 11.7767C38.9504 12.3645 39.5801 13.1331 40.0073 14.0825C40.4571 15.0093 40.682 15.9814 40.682 16.9986C40.682 18.1741 40.3784 19.2818 39.7712 20.3216C39.1866 21.3389 38.3433 22.0962 37.2414 22.5935C38.6131 23.0004 39.6925 23.7577 40.4796 24.8654C41.2891 25.9504 41.6939 27.239 41.6939 28.7309ZM38.6244 28.1884C38.6244 27.4424 38.4557 26.753 38.1184 26.12C37.8036 25.487 37.3651 24.9784 36.8029 24.5941C36.2632 24.2098 35.6336 24.0177 34.914 24.0177H26.3463V32.2913H34.6779C35.4199 32.2913 36.0833 32.0992 36.668 31.7149C37.2751 31.3306 37.7474 30.8333 38.0847 30.2229C38.4445 29.59 38.6244 28.9118 38.6244 28.1884ZM26.3463 13.5061V21.5424H33.9695C34.6891 21.5424 35.3187 21.3615 35.8584 20.9998C36.4206 20.6381 36.8591 20.1521 37.1739 19.5418C37.5113 18.9314 37.6799 18.2645 37.6799 17.5412C37.6799 16.7726 37.5225 16.0944 37.2077 15.5066C36.9153 14.8963 36.4993 14.4103 35.9596 14.0486C35.4424 13.6869 34.8465 13.5061 34.1719 13.5061H26.3463ZM55.655 35.1057C53.9685 35.1057 52.4393 34.7666 51.0676 34.0885C49.6959 33.4103 48.5041 32.4948 47.4921 31.3419C46.5027 30.1664 45.7381 28.8553 45.1984 27.4085C44.6587 25.9391 44.3889 24.4359 44.3889 22.8987C44.3889 21.2937 44.67 19.7678 45.2322 18.3211C45.8168 16.8517 46.6151 15.5519 47.6271 14.4216C48.6615 13.2687 49.8645 12.3645 51.2363 11.7089C52.608 11.0307 54.1034 10.6917 55.7225 10.6917C57.409 10.6917 58.9381 11.042 60.3099 11.7428C61.6816 12.4436 62.8622 13.3817 63.8517 14.5572C64.8411 15.7327 65.6056 17.0438 66.1453 18.4906C66.685 19.9374 66.9549 21.418 66.9549 22.9326C66.9549 24.5376 66.6738 26.0748 66.1116 27.5441C65.5494 28.9909 64.7512 30.2907 63.7168 31.4436C62.7048 32.5739 61.5129 33.4668 60.1412 34.1224C58.7695 34.778 57.2741 35.1057 55.655 35.1057ZM47.4584 22.8987C47.4584 24.1194 47.6495 25.3062 48.0318 26.4591C48.4366 27.5894 48.9988 28.5953 49.7184 29.4769C50.438 30.3586 51.3037 31.0593 52.3156 31.5793C53.3276 32.0992 54.4519 32.3591 55.6887 32.3591C56.9705 32.3591 58.1174 32.0879 59.1293 31.5453C60.1412 31.0028 60.9957 30.2794 61.6928 29.3752C62.4125 28.471 62.9521 27.4537 63.3119 26.3234C63.6942 25.1932 63.8853 24.0516 63.8853 22.8987C63.8853 21.678 63.683 20.5025 63.2782 19.3722C62.8959 18.2419 62.3337 17.236 61.5916 16.3544C60.8721 15.4501 60.0063 14.7494 58.9944 14.252C58.0049 13.7321 56.903 13.4721 55.6887 13.4721C54.407 13.4721 53.2601 13.7434 52.2482 14.2859C51.2363 14.8059 50.3705 15.518 49.6509 16.4222C48.9538 17.3264 48.4141 18.3437 48.0318 19.4739C47.6495 20.5816 47.4584 21.7232 47.4584 22.8987ZM80.8874 35.1057C79.2008 35.1057 77.6717 34.7666 76.3 34.0885C74.9282 33.4103 73.7364 32.4948 72.7245 31.3419C71.735 30.1664 70.9705 28.8553 70.4308 27.4085C69.8911 25.9391 69.6212 24.4359 69.6212 22.8987C69.6212 21.2937 69.9023 19.7678 70.4645 18.3211C71.0492 16.8517 71.8475 15.5519 72.8594 14.4216C73.8938 13.2687 75.0969 12.3645 76.4686 11.7089C77.8403 11.0307 79.3357 10.6917 80.9548 10.6917C82.6414 10.6917 84.1705 11.042 85.5422 11.7428C86.9139 12.4436 88.0945 13.3817 89.084 14.5572C90.0734 15.7327 90.838 17.0438 91.3777 18.4906C91.9174 19.9374 92.1872 21.418 92.1872 22.9326C92.1872 24.5376 91.9061 26.0748 91.3439 27.5441C90.7817 28.9909 89.9835 30.2907 88.949 31.4436C87.9371 32.5739 86.7453 33.4668 85.3736 34.1224C84.0018 34.778 82.5064 35.1057 80.8874 35.1057ZM72.6907 22.8987C72.6907 24.1194 72.8819 25.3062 73.2642 26.4591C73.6689 27.5894 74.2311 28.5953 74.9507 29.4769C75.6703 30.3586 76.5361 31.0593 77.548 31.5793C78.5599 32.0992 79.6843 32.3591 80.9211 32.3591C82.2029 32.3591 83.3497 32.0879 84.3616 31.5453C85.3736 31.0028 86.2281 30.2794 86.9252 29.3752C87.6448 28.471 88.1845 27.4537 88.5443 26.3234C88.9266 25.1932 89.1177 24.0516 89.1177 22.8987C89.1177 21.678 88.9153 20.5025 88.5105 19.3722C88.1283 18.2419 87.5661 17.236 86.824 16.3544C86.1044 15.4501 85.2386 14.7494 84.2267 14.252C83.2373 13.7321 82.1354 13.4721 80.9211 13.4721C79.6393 13.4721 78.4925 13.7434 77.4805 14.2859C76.4686 14.8059 75.6028 15.518 74.8833 16.4222C74.1861 17.3264 73.6465 18.3437 73.2642 19.4739C72.8819 20.5816 72.6907 21.7232 72.6907 22.8987ZM96.4051 34.9362V10.8951H99.4409V24.1872L111.787 10.8612H115.059L105.445 21.4745L115.598 34.9362H112.191L103.523 23.3056L99.4409 27.5781V34.9362H96.4051Z" fill="white"/>
</svg>
