<svg width="171" height="35" viewBox="0 0 171 35" fill="none" xmlns="http://www.w3.org/2000/svg">
<path d="M121.499 11.0282H114.995V27H112.606V11.0282H106.102V9H121.499V11.0282ZM128.159 9H130.177L137.875 27H135.327L133.097 21.7268H125.186L122.982 27H120.434L128.159 9ZM132.566 19.9521L129.168 11.6366L125.664 19.9521H132.566ZM140.391 27V9H142.78V24.9718H153.293V27H140.391ZM155.894 27V9.02535H158.283V18.9634L168 9H170.574L163.009 16.9352L170.999 27H168.318L161.496 18.3042L158.283 21.4986V27H155.894Z" fill="white"/>
<path d="M0 17.5C0 7.83494 7.75088 0 17.3122 0H108.63C108.674 0 108.717 0.00519018 108.759 0.0154729C109.334 0.155859 109.304 1.09062 108.738 1.2601C93.1628 5.91927 93.1132 29.0092 108.731 33.698C109.318 33.874 109.361 34.8149 108.771 34.979C108.721 34.993 108.669 35 108.617 35H17.3122C7.75088 35 0 27.1651 0 17.5Z" fill="#F95C3B"/>
<path d="M32.9067 22.0389C32.9067 23.0065 32.6607 23.8509 32.1687 24.5722C31.6768 25.2935 31.0091 25.8565 30.1657 26.2611C29.3399 26.6657 28.4263 26.8681 27.4247 26.8681H18.543V8.13194H27.8464C28.7249 8.13194 29.4805 8.36944 30.113 8.84444C30.7631 9.30185 31.2551 9.9 31.5889 10.6389C31.9403 11.3602 32.116 12.1167 32.116 12.9083C32.116 13.8231 31.8788 14.6852 31.4044 15.4944C30.9476 16.2861 30.2887 16.8755 29.4278 17.2625C30.4995 17.5792 31.3429 18.1685 31.9579 19.0306C32.5904 19.875 32.9067 20.8778 32.9067 22.0389ZM30.5083 21.6167C30.5083 21.0361 30.3766 20.4995 30.113 20.0069C29.867 19.5144 29.5244 19.1185 29.0851 18.8194C28.6635 18.5204 28.1715 18.3708 27.6092 18.3708H20.915V24.8097H27.4247C28.0046 24.8097 28.5229 24.6602 28.9797 24.3611C29.4541 24.062 29.8231 23.675 30.0866 23.2C30.3678 22.7074 30.5083 22.1796 30.5083 21.6167ZM20.915 10.1903V16.4444H26.8713C27.4335 16.4444 27.9255 16.3037 28.3472 16.0222C28.7864 15.7407 29.1291 15.3625 29.375 14.8875C29.6386 14.4125 29.7704 13.8935 29.7704 13.3306C29.7704 12.7324 29.6474 12.2046 29.4014 11.7472C29.173 11.2722 28.8479 10.894 28.4263 10.6125C28.0221 10.331 27.5565 10.1903 27.0294 10.1903H20.915ZM43.8151 27C42.4973 27 41.3026 26.7361 40.2308 26.2083C39.159 25.6806 38.2278 24.9681 37.4371 24.0708C36.664 23.156 36.0666 22.1356 35.6449 21.0097C35.2232 19.8662 35.0124 18.6963 35.0124 17.5C35.0124 16.2509 35.232 15.0634 35.6713 13.9375C36.1281 12.794 36.7519 11.7824 37.5425 10.9028C38.3507 10.0056 39.2908 9.30185 40.3625 8.79167C41.4343 8.26389 42.6028 8 43.8678 8C45.1856 8 46.3804 8.27269 47.4522 8.81806C48.5239 9.36343 49.4464 10.0935 50.2196 11.0083C50.9926 11.9231 51.59 12.9435 52.0116 14.0694C52.4333 15.1954 52.6442 16.3477 52.6442 17.5264C52.6442 18.7755 52.4245 19.9718 51.9853 21.1153C51.546 22.2412 50.9224 23.2528 50.1141 24.15C49.3234 25.0296 48.3922 25.7245 47.3204 26.2347C46.2486 26.7449 45.0802 27 43.8151 27ZM37.4107 17.5C37.4107 18.45 37.5601 19.3736 37.8588 20.2708C38.175 21.1505 38.6143 21.9333 39.1765 22.6194C39.7388 23.3056 40.4153 23.8509 41.2059 24.2556C41.9966 24.6602 42.8751 24.8625 43.8415 24.8625C44.843 24.8625 45.739 24.6514 46.5297 24.2292C47.3204 23.8069 47.988 23.244 48.5327 22.5403C49.0951 21.8366 49.5167 21.0449 49.7978 20.1653C50.0965 19.2856 50.2458 18.3972 50.2458 17.5C50.2458 16.55 50.0877 15.6352 49.7714 14.7556C49.4727 13.8759 49.0335 13.0931 48.4537 12.4069C47.8914 11.7032 47.215 11.1579 46.4243 10.7708C45.6512 10.3662 44.7903 10.1639 43.8415 10.1639C42.84 10.1639 41.9439 10.375 41.1532 10.7972C40.3625 11.2019 39.6861 11.756 39.1238 12.4597C38.5792 13.1634 38.1575 13.9551 37.8588 14.8347C37.5601 15.6968 37.4107 16.5852 37.4107 17.5ZM63.5302 27C62.2125 27 61.0177 26.7361 59.9459 26.2083C58.8741 25.6806 57.9429 24.9681 57.1522 24.0708C56.3791 23.156 55.7817 22.1356 55.3601 21.0097C54.9384 19.8662 54.7275 18.6963 54.7275 17.5C54.7275 16.2509 54.9472 15.0634 55.3864 13.9375C55.8432 12.794 56.467 11.7824 57.2576 10.9028C58.0659 10.0056 59.0059 9.30185 60.0777 8.79167C61.1495 8.26389 62.3179 8 63.5829 8C64.9007 8 66.0955 8.27269 67.1673 8.81806C68.2391 9.36343 69.1615 10.0935 69.9346 11.0083C70.7077 11.9231 71.3051 12.9435 71.7268 14.0694C72.1485 15.1954 72.3593 16.3477 72.3593 17.5264C72.3593 18.7755 72.1397 19.9718 71.7004 21.1153C71.2612 22.2412 70.6374 23.2528 69.8292 24.15C69.0385 25.0296 68.1073 25.7245 67.0355 26.2347C65.9637 26.7449 64.7953 27 63.5302 27ZM57.1259 17.5C57.1259 18.45 57.2752 19.3736 57.5739 20.2708C57.8902 21.1505 58.3294 21.9333 58.8917 22.6194C59.4539 23.3056 60.1304 23.8509 60.9211 24.2556C61.7117 24.6602 62.5902 24.8625 63.5566 24.8625C64.5581 24.8625 65.4542 24.6514 66.2448 24.2292C67.0355 23.8069 67.7032 23.244 68.2479 22.5403C68.8101 21.8366 69.2318 21.0449 69.5129 20.1653C69.8116 19.2856 69.961 18.3972 69.961 17.5C69.961 16.55 69.8028 15.6352 69.4866 14.7556C69.1879 13.8759 68.7486 13.0931 68.1688 12.4069C67.6065 11.7032 66.9301 11.1579 66.1394 10.7708C65.3663 10.3662 64.5054 10.1639 63.5566 10.1639C62.5551 10.1639 61.659 10.375 60.8683 10.7972C60.0777 11.2019 59.4012 11.756 58.839 12.4597C58.2943 13.1634 57.8726 13.9551 57.5739 14.8347C57.2752 15.6968 57.1259 16.5852 57.1259 17.5ZM75.6549 26.8681V8.15833H78.0269V18.5028L87.6732 8.13194H90.2297L82.7184 16.3917L90.6514 26.8681H87.9895L81.2162 17.8167L78.0269 21.1417V26.8681H75.6549Z" fill="white"/>
</svg>
