<svg width="164" height="34" viewBox="0 0 164 34" fill="none" xmlns="http://www.w3.org/2000/svg">
<path d="M116.685 10.5757H110.468V26.7161H108.184V10.5757H101.967V8.52612H116.685V10.5757ZM123.051 8.52612H124.979L132.338 26.7161H129.902L127.771 21.3872H120.209L118.102 26.7161H115.666L123.051 8.52612ZM127.263 19.5938L124.015 11.1906L120.665 19.5938H127.263ZM134.743 26.7161V8.52612H137.026V24.6665H147.075V26.7161H134.743ZM149.562 26.7161V8.55174H151.845V18.5947L161.133 8.52612H163.594L156.362 16.5451L164 26.7161H161.437L154.916 17.9286L151.845 21.1566V26.7161H149.562Z" fill="#F95C3B"/>
<path d="M0 17C0 7.61108 7.4477 0 16.635 0H104.381C104.423 0 104.464 0.00504189 104.505 0.0150309C105.057 0.151406 105.029 1.05946 104.485 1.22409C89.5187 5.75015 89.4711 28.1804 104.478 32.7352C105.042 32.9062 105.083 33.8202 104.516 33.9796C104.468 33.9932 104.419 34 104.369 34H16.635C7.4477 34 0 26.3889 0 17Z" fill="#F95C3B"/>
<path d="M31.3668 21.7078C31.3668 22.6472 31.1299 23.467 30.6563 24.1673C30.1826 24.8676 29.5397 25.4141 28.7277 25.807C27.9326 26.1998 27.0529 26.3962 26.0887 26.3962H17.5371V8.20622H26.4947C27.3405 8.20622 28.068 8.4368 28.677 8.89796C29.3029 9.34203 29.7766 9.92274 30.098 10.6401C30.4363 11.3404 30.6055 12.0748 30.6055 12.8434C30.6055 13.7315 30.3771 14.5685 29.9204 15.3541C29.4805 16.1227 28.8461 16.6949 28.0172 17.0706C29.0491 17.3781 29.8612 17.9503 30.4533 18.7872C31.0623 19.607 31.3668 20.5805 31.3668 21.7078ZM29.0576 21.2979C29.0576 20.7343 28.9307 20.2133 28.677 19.7351C28.4401 19.2569 28.1103 18.8726 27.6873 18.5822C27.2813 18.2919 26.8076 18.1467 26.2663 18.1467H19.8209V24.3979H26.0887C26.6469 24.3979 27.146 24.2527 27.5858 23.9623C28.0426 23.672 28.3978 23.2962 28.6516 22.8351C28.9223 22.3568 29.0576 21.8445 29.0576 21.2979ZM19.8209 10.2046V16.2764H25.5558C26.0971 16.2764 26.5708 16.1398 26.9768 15.8665C27.3997 15.5932 27.7296 15.226 27.9665 14.7649C28.2202 14.3037 28.3471 13.7999 28.3471 13.2533C28.3471 12.6726 28.2287 12.1602 27.9918 11.7161C27.7719 11.255 27.4589 10.8878 27.0529 10.6145C26.6638 10.3412 26.2155 10.2046 25.708 10.2046H19.8209ZM41.8696 26.5243C40.6009 26.5243 39.4505 26.2681 38.4186 25.7557C37.3866 25.2433 36.49 24.5516 35.7288 23.6805C34.9844 22.7924 34.4092 21.8018 34.0032 20.7086C33.5972 19.5985 33.3942 18.4626 33.3942 17.3012C33.3942 16.0886 33.6057 14.9357 34.0286 13.8426C34.4684 12.7324 35.069 11.7503 35.8303 10.8963C36.6084 10.0252 37.5135 9.34203 38.5454 8.84672C39.5774 8.33432 40.7024 8.07812 41.9204 8.07812C43.1892 8.07812 44.3395 8.34286 45.3715 8.87234C46.4034 9.40181 47.2915 10.1106 48.036 10.9988C48.7802 11.8869 49.3554 12.8776 49.7614 13.9707C50.1674 15.0638 50.3704 16.1825 50.3704 17.3268C50.3704 18.5395 50.159 19.7009 49.736 20.8111C49.3131 21.9042 48.7127 22.8863 47.9345 23.7574C47.1731 24.6114 46.2765 25.286 45.2446 25.7813C44.2126 26.2767 43.0877 26.5243 41.8696 26.5243ZM35.7034 17.3012C35.7034 18.2235 35.8472 19.1202 36.1348 19.9913C36.4393 20.8453 36.8622 21.6053 37.4035 22.2714C37.9449 22.9376 38.5962 23.467 39.3575 23.8599C40.1187 24.2527 40.9646 24.4491 41.895 24.4491C42.8593 24.4491 43.722 24.2442 44.4833 23.8343C45.2446 23.4243 45.8874 22.8778 46.4119 22.1946C46.9533 21.5114 47.3592 20.7428 47.6299 19.8888C47.9175 19.0348 48.0613 18.1723 48.0613 17.3012C48.0613 16.3789 47.909 15.4908 47.6045 14.6368C47.3169 13.7828 46.894 13.0227 46.3357 12.3566C45.7944 11.6734 45.1431 11.144 44.3818 10.7682C43.6375 10.3754 42.8085 10.1789 41.895 10.1789C40.9307 10.1789 40.068 10.3839 39.3067 10.7938C38.5454 11.1867 37.8941 11.7247 37.3528 12.4079C36.8284 13.091 36.4224 13.8596 36.1348 14.7136C35.8472 15.5505 35.7034 16.4131 35.7034 17.3012ZM60.8518 26.5243C59.583 26.5243 58.4326 26.2681 57.4007 25.7557C56.3688 25.2433 55.4722 24.5516 54.7109 23.6805C53.9665 22.7924 53.3914 21.8018 52.9854 20.7086C52.5793 19.5985 52.3763 18.4626 52.3763 17.3012C52.3763 16.0886 52.5878 14.9357 53.0107 13.8426C53.4506 12.7324 54.0511 11.7503 54.8124 10.8963C55.5906 10.0252 56.4956 9.34203 57.5276 8.84672C58.5595 8.33432 59.6845 8.07812 60.9025 8.07812C62.1713 8.07812 63.3217 8.34286 64.3536 8.87234C65.3855 9.40181 66.2737 10.1106 67.018 10.9988C67.7624 11.8869 68.3376 12.8776 68.7436 13.9707C69.1496 15.0638 69.3526 16.1825 69.3526 17.3268C69.3526 18.5395 69.1411 19.7009 68.7182 20.8111C68.2953 21.9042 67.6947 22.8863 66.9165 23.7574C66.1553 24.6114 65.2587 25.286 64.2267 25.7813C63.1948 26.2767 62.0698 26.5243 60.8518 26.5243ZM54.6855 17.3012C54.6855 18.2235 54.8293 19.1202 55.1169 19.9913C55.4214 20.8453 55.8443 21.6053 56.3857 22.2714C56.927 22.9376 57.5783 23.467 58.3396 23.8599C59.1009 24.2527 59.9467 24.4491 60.8771 24.4491C61.8414 24.4491 62.7042 24.2442 63.4655 23.8343C64.2267 23.4243 64.8696 22.8778 65.394 22.1946C65.9353 21.5114 66.3413 20.7428 66.612 19.8888C66.8996 19.0348 67.0434 18.1723 67.0434 17.3012C67.0434 16.3789 66.8911 15.4908 66.5866 14.6368C66.2991 13.7828 65.8761 13.0227 65.3179 12.3566C64.7765 11.6734 64.1252 11.144 63.3639 10.7682C62.6196 10.3754 61.7907 10.1789 60.8771 10.1789C59.9129 10.1789 59.0501 10.3839 58.2888 10.7938C57.5276 11.1867 56.8763 11.7247 56.3349 12.4079C55.8105 13.091 55.4045 13.8596 55.1169 14.7136C54.8293 15.5505 54.6855 16.4131 54.6855 17.3012ZM72.5257 26.3962V8.23184H74.8095V18.2748L84.0971 8.20622H86.5586L79.3265 16.2252L86.9646 26.3962H84.4017L77.8801 17.6087L74.8095 20.8367V26.3962H72.5257Z" fill="white"/>
</svg>
